PathFileType	4	(x/y/z)	S04_M20_T03.trc
DataRate	CameraRate	NumFrames	NumMarkers	Units	OrigDataRate	OrigDataStartFrame	OrigNumFrames
240	240	4	51	mm	240	424	565
Frame#	Time	Sternum			R.Acromium			L.Acromium			Top.Head			R.ASIS			L.ASIS			R.PSIS			L.PSIS			R.Great.Tro			L.Great.Tro			R.Iliac.Crest			L.Iliac.Crest			V.Sacral			R.Thigh.Upper.Post			R.Thigh.Lower.Ant			R.Thigh.Lower.Post			R.Thigh.Upper.Ant			R.Knee.Lat			R.Knee.Med			R.Shank.Upper.Post			R.Shank.Lower.Ant			R.Shank.Lower.Post			R.Shank.Upper.Ant			R.Ankle.Lat			R.Ankle.Med			R.Heel.Upper			R.Heel.Med			R.Heel.Lat			R.Toe.Lat			R.Toe.Med			R.Toe.Tip			L.Thigh.Upper.Post			L.Thigh.Lower.Ant			L.Thigh.Lower.Post			L.Thigh.Upper.Ant			L.Knee.Lat			L.Knee.Med			L.Shank.Upper.Post			L.Shank.Lower.Ant			L.Shank.Lower.Post			L.Shank.Upper.Ant			L.Ankle.Lat			L.Ankle.Med			L.Heel.Upper			L.Heel.Med			L.Heel.Lat			L.Toe.Lat			L.Toe.Med			L.Toe.Tip			Cervical.Spine			Back			
		X1	Y1	Z1	X2	Y2	Z2	X3	Y3	Z3	X4	Y4	Z4	X5	Y5	Z5	X6	Y6	Z6	X7	Y7	Z7	X8	Y8	Z8	X9	Y9	Z9	X10	Y10	Z10	X11	Y11	Z11	X12	Y12	Z12	X13	Y13	Z13	X14	Y14	Z14	X15	Y15	Z15	X16	Y16	Z16	X17	Y17	Z17	X18	Y18	Z18	X19	Y19	Z19	X20	Y20	Z20	X21	Y21	Z21	X22	Y22	Z22	X23	Y23	Z23	X24	Y24	Z24	X25	Y25	Z25	X26	Y26	Z26	X27	Y27	Z27	X28	Y28	Z28	X29	Y29	Z29	X30	Y30	Z30	X31	Y31	Z31	X32	Y32	Z32	X33	Y33	Z33	X34	Y34	Z34	X35	Y35	Z35	X36	Y36	Z36	X37	Y37	Z37	X38	Y38	Z38	X39	Y39	Z39	X40	Y40	Z40	X41	Y41	Z41	X42	Y42	Z42	X43	Y43	Z43	X44	Y44	Z44	X45	Y45	Z45	X46	Y46	Z46	X47	Y47	Z47	X48	Y48	Z48	X49	Y49	Z49	X50	Y50	Z50	X51	Y51	Z51	

424	1.7625	1336.6	1276.7	272.75	1200.5	1500.5	446.37	1195.7	1486.2	94.095	1218.1	1827	256.8	1302.6	984.27	414.84	1325.8	1011.3	165.1	1100.2	1027	297.5	1115	1034.7	217.15	1208.9	901.79	466.05	1220.9	925.81	86.655	1216.5	1078.8	450.99	1226.9	1087.1	108.58	1086.2	989.34	253.28	1242.8	640.22	459.56	1328.8	566.67	433.23	1253.5	550.63	445.73	1324	676.53	451.72	1271.9	486.92	438.7	1263.9	485.02	301.71	1063.1	390.75	429.21	1048.6	286.44	396.01	1010.3	345.18	416.33	1099.5	335.38	417.67	928.55	262.31	399.62	960.23	246.47	314.02	870.58	287.38	335.89	854.69	260.73	304.79	844.05	267.01	369.62	936.86	132.42	436	972.52	99.089	325.06	1022.7	67.18	379.43	1253.9	681.72	107.17	1353.5	606.71	127.04	1280.8	598.28	126.81	1322.2	688.76	103.91	1337.8	515.29	144.56	1329.9	507.86	269.45	1255.8	332.27	143.24	1326.3	247.36	156.71	1262.7	255.38	154.77	1320.2	323.28	145.61	1301.1	100.14	174.87	1298.8	111.35	270.14	1222.2	71.277	219.87	1227.1	47.19	254.6	1226.2	43.274	192.95	1410	42.607	160.14	1438.2	49.816	277.97	1496.7	60.67	231.65	1147	1543.8	274.78	1077.6	1283.7	254.33
425	1.7667	1341.3	1277.5	272.61	1205.3	1501.4	446.29	1200.3	1487.1	94.046	1223.1	1827.9	256.89	1307.5	985.28	414.53	1330.1	1012	164.72	1104.9	1027.8	297.8	1119.5	1035.4	217.41	1214.3	902.79	466.17	1224.7	926.43	86.684	1221.4	1079.7	450.93	1231.5	1087.9	108.54	1090.7	990.15	253.61	1250.9	641.49	459.78	1337.5	568.78	433.11	1262.5	552.03	445.83	1331.7	678.57	451.7	1281.3	488.49	438.66	1273.1	486.6	301.62	1073.5	390.18	429.06	1060.1	285.72	396.04	1021.2	344.01	416.24	1110.5	335.17	417.65	940.36	260.14	399.57	972.29	244.65	313.99	881.89	284.2	335.83	866.45	257.21	304.75	855.73	263.44	369.58	950.72	130.53	436.21	986.86	97.543	325.32	1037.6	66.582	379.71	1256.4	682.29	107.26	1355.4	606.53	126.96	1282.6	598.62	126.77	1324.7	688.8	103.9	1339	515.2	144.49	1331.1	507.75	269.34	1256.4	332.42	143.38	1326.7	247.31	156.72	1263.1	255.51	154.9	1320.7	323.25	145.62	1301.2	100.23	175.02	1298.9	111.37	270.28	1222.2	71.379	219.93	1227.1	47.212	254.64	1226.3	43.385	193	1410	42.614	160.14	1438.2	49.631	278	1496.7	60.456	231.65	1151.8	1544.6	274.74	1082.3	1284.5	254.3
426	1.7708	1345.9	1278.3	272.48	1210.1	1502.2	446.21	1204.9	1487.9	94.006	1228	1828.7	256.99	1312.5	986.27	414.23	1334.4	1012.6	164.35	1109.5	1028.6	298.11	1123.9	1036.2	217.68	1219.7	903.78	466.3	1228.5	927.02	86.721	1226.3	1080.5	450.87	1236	1088.8	108.51	1095.3	990.93	253.96	1258.9	642.79	460	1346.2	570.91	432.98	1271.4	553.46	445.94	1339.4	680.63	451.67	1290.7	490.08	438.62	1282.2	488.21	301.55	1083.9	389.54	428.92	1071.7	284.94	396.06	1032.2	342.74	416.16	1121.6	334.92	417.62	952.27	257.85	399.52	984.46	242.73	313.95	893.31	280.88	335.76	878.35	253.56	304.71	867.53	259.71	369.53	964.72	128.53	436.39	1001.4	95.936	325.56	1052.6	65.938	379.96	1258.8	682.86	107.36	1357.3	606.35	126.88	1284.4	598.97	126.73	1327.1	688.84	103.89	1340.3	515.11	144.41	1332.3	507.65	269.21	1257	332.57	143.5	1327.1	247.27	156.72	1263.5	255.64	155.01	1321.3	323.22	145.62	1301.3	100.3	175.15	1298.9	111.39	270.41	1222.1	71.475	219.98	1227.1	47.235	254.69	1226.3	43.49	193.04	1410	42.62	160.14	1438.3	49.46	278.04	1496.8	60.258	231.65	1156.5	1545.4	274.71	1087	1285.3	254.29
427	1.775	1350.6	1279.1	272.36	1214.8	1503	446.15	1209.5	1488.7	93.974	1232.9	1829.5	257.09	1317.5	987.24	413.94	1338.7	1013.2	163.99	1114.2	1029.3	298.42	1128.4	1036.9	217.97	1225.1	904.76	466.44	1232.3	927.6	86.766	1231.3	1081.4	450.82	1240.5	1089.6	108.5	1099.8	991.69	254.32	1266.9	644.1	460.23	1354.7	573.06	432.85	1280.3	554.91	446.06	1346.9	682.7	451.62	1299.9	491.69	438.58	1291.2	489.84	301.49	1094.3	388.81	428.79	1083.4	284.09	396.07	1043.2	341.37	416.07	1132.6	334.61	417.58	964.28	255.43	399.46	996.73	240.72	313.9	904.84	277.41	335.67	890.37	249.77	304.66	879.46	255.83	369.47	978.85	126.44	436.55	1016	94.277	325.76	1067.8	65.257	380.17	1261.1	683.42	107.46	1359.1	606.16	126.79	1286.2	599.33	126.7	1329.5	688.88	103.88	1341.5	515.03	144.32	1333.4	507.55	269.09	1257.5	332.72	143.62	1327.5	247.23	156.71	1263.8	255.78	155.11	1321.8	323.2	145.62	1301.3	100.38	175.28	1299	111.41	270.54	1222.1	71.567	220.03	1227.2	47.258	254.73	1226.3	43.589	193.09	1410	42.626	160.14	1438.4	49.302	278.07	1496.8	60.073	231.66	1161.3	1546.2	274.69	1091.6	1286.1	254.28
